<?xml version="1.0" standalone="no"?>
<!DOCTYPE svg PUBLIC "-//W3C//DTD SVG 20010904//EN"
 "http://www.w3.org/TR/2001/REC-SVG-20010904/DTD/svg10.dtd">
<svg version="1.0" xmlns="http://www.w3.org/2000/svg"
 width="80.000000pt" height="80.000000pt" viewBox="0 0 80.000000 80.000000"
 preserveAspectRatio="xMidYMid meet">
<metadata>
Created by potrace 1.10, written by Peter Selinger 2001-2011
</metadata>
<g transform="translate(0.000000,80.000000) scale(0.100000,-0.100000)"
fill="#000000" stroke="none">
<path d="M225 705 c38 -35 39 -55 4 -55 -14 0 -19 -7 -19 -26 0 -22 3 -25 23
-20 12 3 36 6 52 6 37 0 52 9 57 35 2 17 -2 20 -29 17 -27 -3 -34 2 -48 27
-15 30 -42 51 -65 51 -6 0 5 -16 25 -35z"/>
<path d="M677 666 c-7 -18 40 -185 57 -204 10 -10 15 -10 29 0 16 12 15 20
-16 113 -32 97 -56 128 -70 91z"/>
<path d="M445 615 c-88 -13 -191 -28 -228 -33 -102 -15 -167 -76 -167 -156 0
-33 55 -51 131 -42 30 4 88 9 129 12 64 5 90 13 177 56 56 27 108 48 115 46 7
-3 -38 -30 -99 -62 -62 -31 -113 -60 -113 -65 0 -9 33 -41 42 -41 14 0 258
121 264 131 3 6 -4 49 -17 95 -27 99 -2 92 -234 59z m195 -51 c20 -52 8 -115
-14 -72 -23 46 -38 45 -145 -6 -75 -36 -112 -48 -143 -48 -24 1 -77 -5 -119
-13 -108 -20 -142 -7 -115 46 28 58 73 71 331 102 184 22 194 22 205 -9z"/>
<path d="M56 356 c16 -51 77 -109 93 -89 9 11 34 84 29 87 -1 1 -31 7 -66 12
-60 10 -62 9 -56 -10z"/>
<path d="M234 369 c-59 -29 -75 -133 -28 -188 l26 -31 -96 0 c-53 0 -96 -4
-96 -8 0 -11 559 -12 566 -1 3 5 -51 9 -122 9 l-127 0 20 23 c55 60 58 119 9
171 -30 32 -39 36 -82 35 -27 0 -58 -5 -70 -10z m113 -55 c31 -31 22 -46 -10
-16 -13 12 -32 22 -42 22 -25 0 -55 -29 -55 -53 0 -24 27 -57 47 -57 7 0 13
-4 13 -10 0 -18 -31 -10 -55 15 -32 31 -32 65 0 99 31 33 68 34 102 0z m1 -51
c26 -6 29 -34 7 -53 -13 -11 -20 -9 -40 10 -30 28 -35 66 -7 55 9 -4 27 -10
40 -12z"/>
</g>
</svg>
