<?xml version="1.0" standalone="no"?>
<!DOCTYPE svg PUBLIC "-//W3C//DTD SVG 20010904//EN"
 "http://www.w3.org/TR/2001/REC-SVG-20010904/DTD/svg10.dtd">
<svg version="1.0" xmlns="http://www.w3.org/2000/svg"
 width="80.000000pt" height="80.000000pt" viewBox="0 0 80.000000 80.000000"
 preserveAspectRatio="xMidYMid meet">
<metadata>
Created by potrace 1.10, written by Peter Selinger 2001-2011
</metadata>
<g transform="translate(0.000000,80.000000) scale(0.100000,-0.100000)"
fill="#000000" stroke="none">
<path d="M480 625 c-58 -22 -81 -25 -206 -25 -77 0 -144 -3 -147 -7 -4 -3 2
-12 13 -20 11 -8 20 -21 20 -29 0 -11 24 -14 133 -14 130 0 134 1 133 21 -1
18 12 26 74 48 41 14 74 31 73 36 -3 17 -26 15 -93 -10z"/>
<path d="M65 456 c-43 -97 -65 -91 337 -88 l351 3 21 27 c11 14 21 31 21 37 0
6 -45 10 -120 10 -100 0 -120 3 -120 15 0 12 13 14 75 12 80 -4 85 6 14 26
-27 8 -132 12 -298 12 l-257 0 -24 -54z m90 3 c0 -7 -8 -15 -17 -17 -18 -3
-25 18 -11 32 10 10 28 1 28 -15z m134 8 c16 -21 3 -27 -56 -27 -37 0 -53 4
-53 13 0 8 3 17 7 20 12 12 90 7 102 -6z m200 -6 c13 -3 30 -16 39 -29 l14
-22 -116 0 c-121 0 -133 5 -99 42 12 14 30 18 77 17 34 -1 72 -4 85 -8z"/>
<path d="M20 324 c-14 -35 -1 -56 65 -104 l54 -40 256 0 255 0 60 42 c63 45
79 73 60 107 -11 21 -16 21 -376 21 l-364 0 -10 -26z m249 -22 c9 -16 11 -15
26 6 22 30 74 27 91 -5 l11 -23 11 25 c16 36 73 36 92 0 l13 -25 11 23 c9 16
20 22 46 22 63 0 81 -84 26 -121 -29 -18 -62 -6 -75 29 -9 22 -9 22 -21 -5 -7
-15 -18 -29 -25 -32 -24 -9 -56 6 -70 33 -10 19 -14 21 -15 9 0 -10 -11 -25
-24 -33 -27 -18 -57 -9 -74 21 -8 14 -12 13 -35 -10 -14 -14 -31 -26 -37 -26
-16 0 -60 47 -60 64 0 73 76 107 109 48z m-121 -5 c5 -23 -16 -47 -34 -40 -14
5 -19 44 -7 57 12 12 38 1 41 -17z m546 7 c7 -19 -11 -57 -26 -52 -19 7 -32
34 -25 52 8 21 43 21 51 0z"/>
<path d="M202 298 c-28 -28 -3 -85 31 -72 25 9 31 43 11 65 -20 22 -26 23 -42
7z"/>
<path d="M324 302 c-21 -13 -25 -49 -9 -66 20 -19 27 -20 43 -4 21 21 8 79
-17 78 -4 0 -11 -4 -17 -8z"/>
<path d="M432 298 c-18 -18 -14 -56 7 -68 15 -7 23 -6 35 6 19 18 20 28 6 55
-12 22 -30 25 -48 7z"/>
<path d="M552 298 c-30 -30 1 -94 33 -68 18 15 20 51 3 68 -15 15 -21 15 -36
0z"/>
</g>
</svg>
