<?xml version="1.0" standalone="no"?>
<!DOCTYPE svg PUBLIC "-//W3C//DTD SVG 20010904//EN"
 "http://www.w3.org/TR/2001/REC-SVG-20010904/DTD/svg10.dtd">
<svg version="1.0" xmlns="http://www.w3.org/2000/svg"
 width="80.000000pt" height="80.000000pt" viewBox="0 0 80.000000 80.000000"
 preserveAspectRatio="xMidYMid meet">
<metadata>
Created by potrace 1.10, written by Peter Selinger 2001-2011
</metadata>
<g transform="translate(0.000000,80.000000) scale(0.100000,-0.100000)"
fill="#000000" stroke="none">
<path d="M182 719 c-23 -12 -51 -34 -62 -49 -27 -37 -43 -116 -35 -170 l7 -45
39 45 c27 31 39 55 39 75 0 51 18 97 52 132 37 39 23 43 -40 12z"/>
<path d="M560 733 c0 -4 11 -19 25 -33 18 -18 29 -46 37 -91 8 -48 20 -75 46
-106 19 -24 38 -40 43 -37 14 8 10 114 -5 157 -18 48 -41 74 -88 98 -39 20
-58 24 -58 12z"/>
<path d="M223 588 l2 -42 69 -1 68 0 -1 -136 c-2 -123 0 -138 19 -160 l20 -24
20 24 c18 21 20 38 20 163 l0 141 70 -5 70 -5 0 43 0 44 -180 0 -180 0 3 -42z
m201 -7 c3 -5 -1 -14 -9 -21 -12 -10 -18 -10 -30 0 -8 7 -12 16 -9 21 7 12 41
12 48 0z"/>
<path d="M154 472 c-19 -18 -34 -35 -34 -37 0 -3 29 -5 65 -5 l65 0 0 -106 0
-105 75 -84 74 -84 76 85 75 85 0 105 0 105 63 -1 c34 -1 65 -1 70 -1 4 1 -11
18 -34 38 -38 34 -46 37 -105 38 l-64 0 0 -125 0 -125 -40 -45 -40 -45 -40 45
-40 45 0 125 0 125 -66 0 c-61 0 -69 -2 -100 -33z"/>
</g>
</svg>
